<svg xmlns="http://www.w3.org/2000/svg" viewBox="0 0 1200 760" role="img" aria-labelledby="title desc">
<title id="title">Diwali</title>
<desc id="desc">Lights, rangoli, family celebration</desc>
<defs>
  <linearGradient id="bg" x1="0" x2="1" y1="0" y2="1"><stop offset="0%" stop-color="#7C2D12"/><stop offset="100%" stop-color="#F59E0B"/></linearGradient>
  <radialGradient id="sun" cx="72%" cy="26%" r="42%"><stop offset="0%" stop-color="#F59E0B" stop-opacity=".95"/><stop offset="100%" stop-color="#F59E0B" stop-opacity="0"/></radialGradient>
  <pattern id="dots" width="40" height="40" patternUnits="userSpaceOnUse"><circle cx="4" cy="4" r="2" fill="#fff" opacity=".18"/></pattern>
</defs>
<rect width="1200" height="760" fill="url(#bg)"/>
<rect width="1200" height="760" fill="url(#sun)"/>
<rect width="1200" height="760" fill="url(#dots)"/>
<circle cx="240" cy="188" r="105" fill="#FFF7ED" opacity=".15"/>
<circle cx="1010" cy="620" r="180" fill="#FFF7ED" opacity=".10"/>
<path d="M0 565 C190 482 336 670 530 584 C720 498 844 395 1200 520 L1200 760 L0 760Z" fill="#fff" opacity=".18"/>
<path d="M0 622 C230 540 390 720 620 610 C790 530 954 535 1200 630 L1200 760 L0 760Z" fill="#7F1D1D" opacity=".22"/>
<g transform="translate(620 382)" opacity=".86">
  <path d="M0-120c28 58 70 96 128 118C69 23 30 63 2 120-27 62-68 22-128 0-69-24-28-62 0-120Z" fill="#FFF7ED"/>
  <path d="M0-74c16 35 40 58 75 73C40 15 17 39 1 74-17 38-41 14-75 0-40-15-16-39 0-74Z" fill="#F59E0B" opacity=".95"/>
</g>
<text x="72" y="636" font-family="Aptos, Inter, Arial, sans-serif" font-size="64" font-weight="800" fill="#FFF7ED">Diwali</text>
<text x="76" y="694" font-family="Aptos, Inter, Arial, sans-serif" font-size="28" fill="#FFF7ED" opacity=".86">Lights, rangoli, family celebration</text>
</svg>