<svg xmlns="http://www.w3.org/2000/svg" viewBox="0 0 1920 800" preserveAspectRatio="xMidYMid slice">
  <defs>
    <linearGradient id="ebg" x1="0" y1="0" x2="0" y2="1">
      <stop offset="0%" stop-color="#FFD9C2"/>
      <stop offset="40%" stop-color="#FFE4D6"/>
      <stop offset="100%" stop-color="#FFF7ED"/>
    </linearGradient>
    <radialGradient id="eglow" cx="0.5" cy="0.05" r="0.75">
      <stop offset="0%" stop-color="#F59E0B" stop-opacity="0.45"/>
      <stop offset="100%" stop-color="#F59E0B" stop-opacity="0"/>
    </radialGradient>
    <radialGradient id="flame" cx="0.5" cy="1" r="0.7">
      <stop offset="0%" stop-color="#FBBF24"/>
      <stop offset="55%" stop-color="#F59E0B"/>
      <stop offset="100%" stop-color="#FFF7ED" stop-opacity="0"/>
    </radialGradient>
    <linearGradient id="efadeBottom" x1="0" y1="0" x2="0" y2="1">
      <stop offset="0%" stop-color="#FFF7ED" stop-opacity="0"/>
      <stop offset="100%" stop-color="#FFF7ED" stop-opacity="0.88"/>
    </linearGradient>
  </defs>
  <rect width="1920" height="800" fill="url(#ebg)"/>
  <rect width="1920" height="800" fill="url(#eglow)"/>

  <!-- String of festival lights -->
  <path d="M 80 200 Q 480 280, 860 210 T 1620 210 T 1900 260" stroke="#7F1D1D" stroke-width="3" fill="none" opacity="0.85"/>
  <g>
    <circle cx="180" cy="222" r="10" fill="#F59E0B" stroke="#7F1D1D" stroke-width="1.5"/>
    <circle cx="320" cy="248" r="10" fill="#B91C1C" stroke="#7F1D1D" stroke-width="1.5"/>
    <circle cx="460" cy="258" r="10" fill="#F59E0B" stroke="#7F1D1D" stroke-width="1.5"/>
    <circle cx="600" cy="248" r="10" fill="#FBBF24" stroke="#7F1D1D" stroke-width="1.5"/>
    <circle cx="740" cy="224" r="10" fill="#7F1D1D" stroke="#FFF7ED" stroke-width="1.5"/>
    <circle cx="880" cy="206" r="10" fill="#B91C1C" stroke="#7F1D1D" stroke-width="1.5"/>
    <circle cx="1020" cy="204" r="10" fill="#F59E0B" stroke="#7F1D1D" stroke-width="1.5"/>
    <circle cx="1160" cy="210" r="10" fill="#7F1D1D" stroke="#FFF7ED" stroke-width="1.5"/>
    <circle cx="1300" cy="218" r="10" fill="#FBBF24" stroke="#7F1D1D" stroke-width="1.5"/>
    <circle cx="1440" cy="222" r="10" fill="#B91C1C" stroke="#7F1D1D" stroke-width="1.5"/>
    <circle cx="1580" cy="226" r="10" fill="#F59E0B" stroke="#7F1D1D" stroke-width="1.5"/>
    <circle cx="1720" cy="234" r="10" fill="#7F1D1D" stroke="#FFF7ED" stroke-width="1.5"/>
    <circle cx="1860" cy="244" r="10" fill="#FBBF24" stroke="#7F1D1D" stroke-width="1.5"/>
  </g>

  <!-- BIG VIBRANT DIYAS — left -->
  <g transform="translate(170, 360)">
    <ellipse cx="0" cy="-30" rx="32" ry="56" fill="url(#flame)"/>
    <ellipse cx="0" cy="-22" rx="16" ry="36" fill="#FBBF24"/>
    <ellipse cx="0" cy="-18" rx="8" ry="18" fill="#FFF7ED"/>
    <rect x="-3" y="20" width="6" height="14" fill="#7F1D1D"/>
    <ellipse cx="0" cy="44" rx="68" ry="15" fill="#7F1D1D"/>
    <path d="M-68 44 Q -58 96, 0 98 Q 58 96, 68 44 Z" fill="#B91C1C"/>
    <path d="M-58 50 Q -48 82, 0 84 Q 48 82, 58 50" fill="none" stroke="#F59E0B" stroke-width="3"/>
  </g>
  <g transform="translate(370, 440)">
    <ellipse cx="0" cy="-22" rx="24" ry="44" fill="url(#flame)"/>
    <ellipse cx="0" cy="-16" rx="12" ry="26" fill="#FBBF24"/>
    <rect x="-3" y="18" width="6" height="12" fill="#7F1D1D"/>
    <ellipse cx="0" cy="36" rx="56" ry="12" fill="#7F1D1D"/>
    <path d="M-56 36 Q -48 78, 0 80 Q 48 78, 56 36 Z" fill="#B91C1C"/>
    <path d="M-46 42 Q -38 70, 0 72 Q 38 70, 46 42" fill="none" stroke="#F59E0B" stroke-width="2.5"/>
  </g>

  <!-- BIG VIBRANT DIYAS — right -->
  <g transform="translate(1490, 360)">
    <ellipse cx="0" cy="-30" rx="32" ry="56" fill="url(#flame)"/>
    <ellipse cx="0" cy="-22" rx="16" ry="36" fill="#FBBF24"/>
    <ellipse cx="0" cy="-18" rx="8" ry="18" fill="#FFF7ED"/>
    <rect x="-3" y="20" width="6" height="14" fill="#7F1D1D"/>
    <ellipse cx="0" cy="44" rx="68" ry="15" fill="#7F1D1D"/>
    <path d="M-68 44 Q -58 96, 0 98 Q 58 96, 68 44 Z" fill="#B91C1C"/>
    <path d="M-58 50 Q -48 82, 0 84 Q 48 82, 58 50" fill="none" stroke="#F59E0B" stroke-width="3"/>
  </g>
  <g transform="translate(1720, 440)">
    <ellipse cx="0" cy="-22" rx="24" ry="44" fill="url(#flame)"/>
    <ellipse cx="0" cy="-16" rx="12" ry="26" fill="#FBBF24"/>
    <rect x="-3" y="18" width="6" height="12" fill="#7F1D1D"/>
    <ellipse cx="0" cy="36" rx="56" ry="12" fill="#7F1D1D"/>
    <path d="M-56 36 Q -48 78, 0 80 Q 48 78, 56 36 Z" fill="#B91C1C"/>
    <path d="M-46 42 Q -38 70, 0 72 Q 38 70, 46 42" fill="none" stroke="#F59E0B" stroke-width="2.5"/>
  </g>

  <!-- BIG TICKET STUBS — vibrant and clear -->
  <g transform="translate(520, 90) rotate(-12)">
    <rect x="0" y="0" width="220" height="80" rx="8" fill="#FFF7ED" stroke="#7F1D1D" stroke-width="4"/>
    <line x1="160" y1="8" x2="160" y2="72" stroke="#7F1D1D" stroke-width="2.5" stroke-dasharray="5 5"/>
    <text x="16" y="48" fill="#7F1D1D" font-family="Arial" font-size="24" font-weight="900">EVENT PASS</text>
    <circle cx="190" cy="40" r="14" fill="#F59E0B"/>
    <text x="184" y="46" fill="#FFF7ED" font-family="Arial" font-size="14" font-weight="900">★</text>
  </g>
  <g transform="translate(1190, 100) rotate(8)">
    <rect x="0" y="0" width="220" height="80" rx="8" fill="#FFF7ED" stroke="#B91C1C" stroke-width="4"/>
    <line x1="160" y1="8" x2="160" y2="72" stroke="#B91C1C" stroke-width="2.5" stroke-dasharray="5 5"/>
    <text x="26" y="48" fill="#B91C1C" font-family="Arial" font-size="24" font-weight="900">ADMIT ONE</text>
    <circle cx="190" cy="40" r="14" fill="#F59E0B"/>
    <text x="184" y="46" fill="#FFF7ED" font-family="Arial" font-size="14" font-weight="900">★</text>
  </g>

  <!-- Decorative cultural wave band -->
  <g opacity="0.62" transform="translate(-50, 580)">
    <path d="M0 200 Q 300 100, 600 200 T 1200 200 T 1800 200 T 2050 200 L 2050 260 L 0 260 Z" fill="#F59E0B"/>
  </g>
  <g opacity="0.75" transform="translate(0, 620)">
    <path d="M0 200 Q 280 130, 560 200 T 1120 200 T 1680 200 T 1920 200 L 1920 230 L 0 230 Z" fill="#B91C1C"/>
  </g>

  <!-- CREAM FADE at bottom for text legibility -->
  <rect x="0" y="350" width="1920" height="450" fill="url(#efadeBottom)"/>
</svg>
